<svg width="26" height="26" viewBox="0 0 26 26" fill="none" xmlns="http://www.w3.org/2000/svg">
<path d="M19.1281 18.0451L14.5315 22.6417C14.3305 22.8429 14.0918 23.0025 13.829 23.1114C13.5663 23.2203 13.2846 23.2764 13.0002 23.2764C12.7158 23.2764 12.4342 23.2203 12.1714 23.1114C11.9087 23.0025 11.6699 22.8429 11.4689 22.6417L6.87126 18.0451C5.65925 16.833 4.83388 15.2887 4.49951 13.6076C4.16514 11.9264 4.33679 10.1839 4.99277 8.60028C5.64874 7.01668 6.75957 5.66316 8.18478 4.71087C9.61 3.75858 11.2856 3.25031 12.9997 3.25031C14.7138 3.25031 16.3894 3.75858 17.8146 4.71087C19.2398 5.66316 20.3506 7.01668 21.0066 8.60028C21.6626 10.1839 21.8342 11.9264 21.4999 13.6076C21.1655 15.2887 20.3401 16.833 19.1281 18.0451Z" stroke="#0005C5" stroke-linecap="round" stroke-linejoin="round"/>
<path d="M16.25 11.9167C16.25 12.7786 15.9076 13.6053 15.2981 14.2148C14.6886 14.8243 13.862 15.1667 13 15.1667C12.138 15.1667 11.3114 14.8243 10.7019 14.2148C10.0924 13.6053 9.75 12.7786 9.75 11.9167C9.75 11.0547 10.0924 10.2281 10.7019 9.61859C11.3114 9.0091 12.138 8.66669 13 8.66669C13.862 8.66669 14.6886 9.0091 15.2981 9.61859C15.9076 10.2281 16.25 11.0547 16.25 11.9167Z" stroke="#0005C5" stroke-linecap="round" stroke-linejoin="round"/>
</svg>
