<svg width="26" height="26" viewBox="0 0 26 26" fill="none" xmlns="http://www.w3.org/2000/svg">
<path d="M4.667 6.50002L13 11.9167L21.333 6.50002H4.667ZM5.00067 20.5834C4.51894 20.5834 4.10692 20.4118 3.76458 20.0688C3.42225 19.7257 3.25072 19.3144 3.25 18.8349V7.16627C3.25 6.68527 3.42153 6.2736 3.76458 5.93127C4.10764 5.58894 4.51931 5.41741 4.99958 5.41669H21.0004C21.4814 5.41669 21.8931 5.58821 22.2354 5.93127C22.5778 6.27433 22.7493 6.68599 22.75 7.16627V13.208C22.75 13.3619 22.698 13.4908 22.594 13.5948C22.49 13.6988 22.3611 13.7504 22.2073 13.7497C22.0534 13.749 21.9249 13.6973 21.8216 13.5948C21.7183 13.4922 21.6667 13.3633 21.6667 13.208V7.45877L13.4853 12.8148C13.4174 12.8646 13.2557 12.9115 13 12.9556C12.9097 12.9556 12.8252 12.9459 12.7465 12.9264C12.6685 12.9061 12.5912 12.8689 12.5147 12.8148L4.33333 7.45769V18.8327C4.33333 19.0277 4.39581 19.1877 4.52075 19.3126C4.64569 19.4375 4.80567 19.5 5.00067 19.5H10.5625C10.7163 19.5 10.8449 19.552 10.9482 19.656C11.0514 19.76 11.1034 19.8889 11.1042 20.0428C11.1049 20.1966 11.0529 20.3252 10.9482 20.4284C10.8434 20.5317 10.7149 20.5834 10.5625 20.5834H5.00067ZM16.7798 21.5085L22.5583 15.7289C22.6594 15.6278 22.7836 15.5737 22.9309 15.5664C23.0783 15.5592 23.2097 15.6134 23.3253 15.7289C23.4408 15.8445 23.4986 15.9723 23.4986 16.1124C23.4986 16.2525 23.4408 16.3804 23.3253 16.4959L17.3918 22.4294C17.2171 22.6041 17.013 22.6915 16.7798 22.6915C16.5465 22.6915 16.3421 22.6041 16.1666 22.4294L13.3088 19.5704C13.2076 19.4693 13.1535 19.3451 13.1463 19.1978C13.139 19.0504 13.1932 18.9194 13.3088 18.8045C13.4243 18.6897 13.5521 18.6319 13.6923 18.6312C13.8324 18.6305 13.9598 18.6882 14.0747 18.8045L16.7798 21.5085Z" fill="#0005C5"/>
</svg>
