<svg width="25" height="30" viewBox="0 0 25 30" fill="none" xmlns="http://www.w3.org/2000/svg">
<path d="M20.8806 15.6349C20.8958 14.4851 21.2087 13.3576 21.7901 12.3575C22.3715 11.3574 23.2026 10.5171 24.206 9.9148C23.5685 9.02599 22.7276 8.29453 21.7499 7.77853C20.7723 7.26252 19.6849 6.97618 18.574 6.94225C16.2044 6.69941 13.9072 8.32657 12.6997 8.32657C11.4688 8.32657 9.6097 6.96636 7.6077 7.00657C6.31276 7.04741 5.05074 7.41505 3.9446 8.07365C2.83847 8.73226 1.92593 9.65937 1.29592 10.7647C-1.4331 15.3776 0.602506 22.1572 3.21673 25.886C4.52469 27.7119 6.0533 29.7515 8.05349 29.6792C10.0108 29.5999 10.7418 28.4606 13.1044 28.4606C15.4451 28.4606 16.1309 29.6792 18.1717 29.6332C20.272 29.5999 21.5953 27.7992 22.8573 25.956C23.7971 24.655 24.5203 23.2171 25 21.6955C23.7798 21.1917 22.7385 20.3483 22.006 19.2706C21.2734 18.1928 20.882 16.9284 20.8806 15.6349Z" fill="#181635"/>
<path d="M17.0256 4.80891C18.1707 3.46678 18.7349 1.74169 18.5983 0C16.8488 0.179399 15.2327 0.995745 14.072 2.28638C13.5046 2.91689 13.07 3.65041 12.793 4.44501C12.5161 5.2396 12.4023 6.07969 12.4581 6.91725C13.3332 6.92605 14.1989 6.74087 14.9901 6.37567C15.7813 6.01047 16.4772 5.47477 17.0256 4.80891Z" fill="#181635"/>
</svg>
