<svg width="24" height="24" viewBox="0 0 24 24" fill="none" xmlns="http://www.w3.org/2000/svg">
<g clip-path="url(#clip0_2007_1087)">
<path d="M8.80877 14.92L14.9188 3.88296C15.0028 3.73096 15.0868 3.58096 15.1628 3.42396C15.2318 3.28196 15.2898 3.13896 15.3278 2.98396C15.4078 2.65796 15.3858 2.31796 15.2618 2.00696C15.1414 1.70056 14.9235 1.44228 14.6418 1.27196C14.3653 1.10459 14.0401 1.03651 13.7198 1.07896C13.3998 1.12196 13.1068 1.27296 12.8758 1.50896C12.7658 1.61896 12.6758 1.74396 12.5928 1.87696C12.5008 2.02296 12.4178 2.17496 12.3338 2.32696L11.9478 3.02396L11.5608 2.32596C11.4768 2.17496 11.3938 2.02296 11.3018 1.87696C11.2207 1.7443 11.1259 1.62061 11.0188 1.50796C10.7934 1.27455 10.4962 1.12349 10.1748 1.07896C9.85476 1.03674 9.52991 1.10482 9.25377 1.27196C8.97204 1.44228 8.75418 1.70056 8.63377 2.00696C8.5102 2.31772 8.48712 2.6594 8.56777 2.98396C8.60577 3.13896 8.66377 3.28196 8.73177 3.42396C8.80777 3.58096 8.89177 3.73096 8.97577 3.88296L10.2238 6.13696L5.36177 14.919H2.02977C1.86177 14.919 1.69377 14.919 1.52677 14.929C1.37477 14.938 1.22677 14.957 1.07877 15C0.768768 15.09 0.496768 15.28 0.300768 15.548C0.104822 15.8177 -0.000796717 16.1424 -0.000976333 16.4758C-0.00115595 16.8092 0.104113 17.134 0.299768 17.404C0.496768 17.672 0.767768 17.861 1.07877 17.952C1.22677 17.995 1.37477 18.014 1.52677 18.023C1.69377 18.033 1.86177 18.033 2.02977 18.033H15.1268C15.1665 17.9455 15.2 17.8552 15.2268 17.763C15.6418 16.347 14.6108 14.919 13.1918 14.919L8.80877 14.92ZM3.11277 18.542L2.32077 20.042C2.23877 20.198 2.15577 20.352 2.08177 20.513C2.01348 20.6579 1.95988 20.8093 1.92177 20.965C1.84153 21.2981 1.86383 21.6477 1.98577 21.968C2.10677 22.286 2.31977 22.551 2.59277 22.723C2.86577 22.895 3.18177 22.965 3.49377 22.92C3.80777 22.876 4.09377 22.722 4.31977 22.48C4.42777 22.365 4.51577 22.238 4.59777 22.102C4.68777 21.952 4.76877 21.796 4.85077 21.64L5.99977 19.464C5.90977 19.314 5.05277 17.994 3.11277 18.542ZM23.6988 15.536C23.5058 15.2749 23.2319 15.085 22.9198 14.996C22.7736 14.9554 22.6233 14.9316 22.4718 14.925C22.3038 14.915 22.1368 14.915 21.9688 14.915H18.6478L14.2578 7.09996C13.6816 7.70452 13.3058 8.47206 13.1818 9.29796C13.0206 10.3309 13.213 11.388 13.7278 12.298L19.0018 21.691C19.0858 21.841 19.1688 21.991 19.2608 22.135C19.3448 22.265 19.4348 22.388 19.5438 22.499C19.7748 22.731 20.0678 22.879 20.3888 22.922C20.7098 22.965 21.0318 22.898 21.3108 22.732C21.5914 22.5641 21.8094 22.3092 21.9318 22.006C22.0568 21.699 22.0778 21.364 21.9978 21.042C21.9582 20.8919 21.9029 20.7464 21.8328 20.608C21.7578 20.453 21.6728 20.305 21.5888 20.155L20.3728 17.989H21.9688C22.1368 17.989 22.3038 17.989 22.4718 17.98C22.6238 17.971 22.7718 17.952 22.9198 17.91C23.2324 17.8208 23.5068 17.6306 23.6998 17.369C23.8952 17.1036 24.0004 16.7825 23.9998 16.453C24.0004 16.1234 23.8952 15.8023 23.6998 15.537" fill="white"/>
</g>
<defs>
<clipPath id="clip0_2007_1087">
<rect width="24" height="24" fill="white"/>
</clipPath>
</defs>
</svg>
