<svg width="1304" height="617" viewBox="0 0 1304 617" fill="none" xmlns="http://www.w3.org/2000/svg">
<g opacity="0.88">
<mask id="mask0_569_4373" style="mask-type:alpha" maskUnits="userSpaceOnUse" x="131" y="-7" width="1302" height="692">
<rect x="131.277" y="-7" width="1301" height="692" fill="#1D1E64"/>
</mask>
<g mask="url(#mask0_569_4373)">
<rect x="86.6665" y="-77" width="86.6667" height="87" stroke="#E5E5E5" stroke-opacity="0.898039" stroke-width="0.707483"/>
<rect x="173.333" y="-77" width="86.6667" height="87" fill="#FAFAFA" fill-opacity="0.898039"/>
<rect x="260" y="-77" width="86.6667" height="87" stroke="#E5E5E5" stroke-opacity="0.898039" stroke-width="0.707483"/>
<rect x="346.667" y="-77" width="86.6667" height="87" stroke="#E5E5E5" stroke-opacity="0.898039" stroke-width="0.707483"/>
<rect x="433.333" y="-77" width="86.6667" height="87" stroke="#E5E5E5" stroke-opacity="0.898039" stroke-width="0.707483"/>
<rect x="520" y="-77" width="86.6667" height="87" stroke="#E5E5E5" stroke-opacity="0.898039" stroke-width="0.707483"/>
<rect x="606.667" y="-77" width="86.6667" height="87" stroke="#E5E5E5" stroke-opacity="0.898039" stroke-width="0.707483"/>
<rect x="693.333" y="-77" width="86.6667" height="87" stroke="#E5E5E5" stroke-opacity="0.898039" stroke-width="0.707483"/>
<rect x="780" y="-77" width="86.6667" height="87" stroke="#E5E5E5" stroke-opacity="0.898039" stroke-width="0.707483"/>
<rect x="866.667" y="-77" width="86.6667" height="87" stroke="#E5E5E5" stroke-opacity="0.898039" stroke-width="0.707483"/>
<rect x="953.334" y="-77" width="86.6667" height="87" stroke="#E5E5E5" stroke-opacity="0.898039" stroke-width="0.707483"/>
<rect x="1040" y="-77" width="86.6667" height="87" stroke="#E5E5E5" stroke-opacity="0.898039" stroke-width="0.707483"/>
<rect x="1126.67" y="-77" width="86.6667" height="87" fill="#FAFAFA" fill-opacity="0.898039"/>
<rect x="1213.33" y="-77" width="86.6667" height="87" stroke="#E5E5E5" stroke-opacity="0.898039" stroke-width="0.707483"/>
<rect x="86.6665" y="10" width="86.6667" height="86" stroke="#E5E5E5" stroke-opacity="0.898039" stroke-width="0.707483"/>
<rect x="173.333" y="10" width="86.6667" height="86" stroke="#E5E5E5" stroke-opacity="0.898039" stroke-width="0.707483"/>
<rect x="260" y="10" width="86.6667" height="86" stroke="#E5E5E5" stroke-opacity="0.898039" stroke-width="0.707483"/>
<rect x="346.667" y="10" width="86.6667" height="86" stroke="#E5E5E5" stroke-opacity="0.898039" stroke-width="0.707483"/>
<rect x="433.333" y="10" width="86.6667" height="86" stroke="#E5E5E5" stroke-opacity="0.898039" stroke-width="0.707483"/>
<rect x="520" y="10" width="86.6667" height="86" stroke="#E5E5E5" stroke-opacity="0.898039" stroke-width="0.707483"/>
<rect x="606.667" y="10" width="86.6667" height="86" stroke="#E5E5E5" stroke-opacity="0.898039" stroke-width="0.707483"/>
<rect x="693.333" y="10" width="86.6667" height="86" fill="#EDEDED" fill-opacity="0.898039"/>
<rect x="780" y="10" width="86.6667" height="86" stroke="#E5E5E5" stroke-opacity="0.898039" stroke-width="0.707483"/>
<rect x="866.667" y="10" width="86.6667" height="86" stroke="#E5E5E5" stroke-opacity="0.898039" stroke-width="0.707483"/>
<rect x="953.334" y="10" width="86.6667" height="86" stroke="#E5E5E5" stroke-opacity="0.898039" stroke-width="0.707483"/>
<rect x="1040" y="10" width="86.6667" height="86" stroke="#E5E5E5" stroke-opacity="0.898039" stroke-width="0.707483"/>
<rect x="1126.67" y="10" width="86.6667" height="86" stroke="#E5E5E5" stroke-opacity="0.898039" stroke-width="0.707483"/>
<rect x="1213.33" y="10" width="86.6667" height="86" stroke="#E5E5E5" stroke-opacity="0.898039" stroke-width="0.707483"/>
<rect x="86.6665" y="96" width="86.6667" height="87" stroke="#E5E5E5" stroke-opacity="0.898039" stroke-width="0.707483"/>
<rect x="173.333" y="96" width="86.6667" height="87" stroke="#E5E5E5" stroke-opacity="0.898039" stroke-width="0.707483"/>
<rect x="260" y="96" width="86.6667" height="87" stroke="#E5E5E5" stroke-opacity="0.898039" stroke-width="0.707483"/>
<rect x="346.667" y="96" width="86.6667" height="87" stroke="#E5E5E5" stroke-opacity="0.898039" stroke-width="0.707483"/>
<rect x="433.333" y="96" width="86.6667" height="87" stroke="#E5E5E5" stroke-opacity="0.898039" stroke-width="0.707483"/>
<rect x="520" y="96" width="86.6667" height="87" stroke="#E5E5E5" stroke-opacity="0.898039" stroke-width="0.707483"/>
<rect x="606.667" y="96" width="86.6667" height="87" stroke="#E5E5E5" stroke-opacity="0.898039" stroke-width="0.707483"/>
<rect x="693.333" y="96" width="86.6667" height="87" stroke="#E5E5E5" stroke-opacity="0.898039" stroke-width="0.707483"/>
<rect x="780" y="96" width="86.6667" height="87" stroke="#E5E5E5" stroke-opacity="0.898039" stroke-width="0.707483"/>
<rect x="866.667" y="96" width="86.6667" height="87" stroke="#E5E5E5" stroke-opacity="0.898039" stroke-width="0.707483"/>
<rect x="953.334" y="96" width="86.6667" height="87" stroke="#E5E5E5" stroke-opacity="0.898039" stroke-width="0.707483"/>
<rect x="1040" y="96" width="86.6667" height="87" stroke="#E5E5E5" stroke-opacity="0.898039" stroke-width="0.707483"/>
<rect x="1126.67" y="96" width="86.6667" height="87" stroke="#E5E5E5" stroke-opacity="0.898039" stroke-width="0.707483"/>
<rect x="1213.33" y="96" width="86.6667" height="87" stroke="#E5E5E5" stroke-opacity="0.898039" stroke-width="0.707483"/>
<rect x="86.6665" y="183" width="86.6667" height="87" stroke="#E5E5E5" stroke-opacity="0.898039" stroke-width="0.707483"/>
<rect x="173.333" y="183" width="86.6667" height="87" stroke="#E5E5E5" stroke-opacity="0.898039" stroke-width="0.707483"/>
<rect x="260" y="183" width="86.6667" height="87" stroke="#E5E5E5" stroke-opacity="0.898039" stroke-width="0.707483"/>
<rect x="346.667" y="183" width="86.6667" height="87" stroke="#E5E5E5" stroke-opacity="0.898039" stroke-width="0.707483"/>
<rect x="433.333" y="183" width="86.6667" height="87" stroke="#E5E5E5" stroke-opacity="0.898039" stroke-width="0.707483"/>
<rect x="520" y="183" width="86.6667" height="87" stroke="#E5E5E5" stroke-opacity="0.898039" stroke-width="0.707483"/>
<rect x="606.667" y="183" width="86.6667" height="87" stroke="#E5E5E5" stroke-opacity="0.898039" stroke-width="0.707483"/>
<rect x="693.333" y="183" width="86.6667" height="87" stroke="#E5E5E5" stroke-opacity="0.898039" stroke-width="0.707483"/>
<rect x="780" y="183" width="86.6667" height="87" stroke="#E5E5E5" stroke-opacity="0.898039" stroke-width="0.707483"/>
<rect x="866.667" y="183" width="86.6667" height="87" stroke="#E5E5E5" stroke-opacity="0.898039" stroke-width="0.707483"/>
<rect x="953.334" y="183" width="86.6667" height="87" stroke="#E5E5E5" stroke-opacity="0.898039" stroke-width="0.707483"/>
<rect x="1040" y="183" width="86.6667" height="87" stroke="#E5E5E5" stroke-opacity="0.898039" stroke-width="0.707483"/>
<rect x="1126.67" y="183" width="86.6667" height="87" stroke="#E5E5E5" stroke-opacity="0.898039" stroke-width="0.707483"/>
<rect x="1213.33" y="183" width="86.6667" height="87" stroke="#E5E5E5" stroke-opacity="0.898039" stroke-width="0.707483"/>
<rect x="86.6665" y="270" width="86.6667" height="86" stroke="#E5E5E5" stroke-opacity="0.898039" stroke-width="0.707483"/>
<rect x="173.333" y="270" width="86.6667" height="86" stroke="#E5E5E5" stroke-opacity="0.898039" stroke-width="0.707483"/>
<rect x="260" y="270" width="86.6667" height="86" stroke="#E5E5E5" stroke-opacity="0.898039" stroke-width="0.707483"/>
<rect x="346.667" y="270" width="86.6667" height="86" stroke="#E5E5E5" stroke-opacity="0.898039" stroke-width="0.707483"/>
<rect x="433.333" y="270" width="86.6667" height="86" stroke="#E5E5E5" stroke-opacity="0.898039" stroke-width="0.707483"/>
<rect x="520" y="270" width="86.6667" height="86" stroke="#E5E5E5" stroke-opacity="0.898039" stroke-width="0.707483"/>
<rect x="606.667" y="270" width="86.6667" height="86" stroke="#E5E5E5" stroke-opacity="0.898039" stroke-width="0.707483"/>
<rect x="693.333" y="270" width="86.6667" height="86" stroke="#E5E5E5" stroke-opacity="0.898039" stroke-width="0.707483"/>
<rect x="780" y="270" width="86.6667" height="86" stroke="#E5E5E5" stroke-opacity="0.898039" stroke-width="0.707483"/>
<rect x="866.667" y="270" width="86.6667" height="86" stroke="#E5E5E5" stroke-opacity="0.898039" stroke-width="0.707483"/>
<rect x="953.334" y="270" width="86.6667" height="86" stroke="#E5E5E5" stroke-opacity="0.898039" stroke-width="0.707483"/>
<rect x="1040" y="270" width="86.6667" height="86" stroke="#E5E5E5" stroke-opacity="0.898039" stroke-width="0.707483"/>
<rect x="1126.67" y="270" width="86.6667" height="86" stroke="#E5E5E5" stroke-opacity="0.898039" stroke-width="0.707483"/>
<rect x="1213.33" y="270" width="86.6667" height="86" stroke="#E5E5E5" stroke-opacity="0.898039" stroke-width="0.707483"/>
<rect x="86.6665" y="356" width="86.6667" height="87" stroke="#E5E5E5" stroke-opacity="0.898039" stroke-width="0.707483"/>
<rect x="173.333" y="356" width="86.6667" height="87" stroke="#E5E5E5" stroke-opacity="0.898039" stroke-width="0.707483"/>
<rect x="260" y="356" width="86.6667" height="87" stroke="#E5E5E5" stroke-opacity="0.898039" stroke-width="0.707483"/>
<rect x="346.667" y="356" width="86.6667" height="87" stroke="#E5E5E5" stroke-opacity="0.898039" stroke-width="0.707483"/>
<rect x="433.333" y="356" width="86.6667" height="87" stroke="#E5E5E5" stroke-opacity="0.898039" stroke-width="0.707483"/>
<rect x="520" y="356" width="86.6667" height="87" stroke="#E5E5E5" stroke-opacity="0.898039" stroke-width="0.707483"/>
<rect x="606.667" y="356" width="86.6667" height="87" stroke="#E5E5E5" stroke-opacity="0.898039" stroke-width="0.707483"/>
<rect x="693.333" y="356" width="86.6667" height="87" stroke="#E5E5E5" stroke-opacity="0.898039" stroke-width="0.707483"/>
<rect x="780" y="356" width="86.6667" height="87" stroke="#E5E5E5" stroke-opacity="0.898039" stroke-width="0.707483"/>
<rect x="866.667" y="356" width="86.6667" height="87" stroke="#E5E5E5" stroke-opacity="0.898039" stroke-width="0.707483"/>
<rect x="953.334" y="356" width="86.6667" height="87" stroke="#E5E5E5" stroke-opacity="0.898039" stroke-width="0.707483"/>
<rect x="1040" y="356" width="86.6667" height="87" stroke="#E5E5E5" stroke-opacity="0.898039" stroke-width="0.707483"/>
<rect x="1126.67" y="356" width="86.6667" height="87" stroke="#E5E5E5" stroke-opacity="0.898039" stroke-width="0.707483"/>
<rect x="1213.33" y="356" width="86.6667" height="87" stroke="#E5E5E5" stroke-opacity="0.898039" stroke-width="0.707483"/>
<rect x="86.6665" y="443" width="86.6667" height="86" fill="#FAFAFA" fill-opacity="0.898039"/>
<rect x="173.333" y="443" width="86.6667" height="86" stroke="#281AC8" stroke-opacity="0.21"/>
<rect x="260" y="443" width="86.6667" height="86" stroke="#E5E5E5" stroke-opacity="0.898039" stroke-width="0.707483"/>
<rect x="346.667" y="443" width="86.6667" height="86" stroke="#E5E5E5" stroke-opacity="0.898039" stroke-width="0.707483"/>
<rect x="433.333" y="443" width="86.6667" height="86" stroke="#E5E5E5" stroke-opacity="0.898039" stroke-width="0.707483"/>
<rect x="520" y="443" width="86.6667" height="86" stroke="#E5E5E5" stroke-opacity="0.898039" stroke-width="0.707483"/>
<rect x="606.667" y="443" width="86.6667" height="86" fill="#FAFAFA" fill-opacity="0.898039"/>
<rect x="693.333" y="443" width="86.6667" height="86" stroke="#E5E5E5" stroke-opacity="0.898039" stroke-width="0.707483"/>
<rect x="780" y="443" width="86.6667" height="86" stroke="#E5E5E5" stroke-opacity="0.898039" stroke-width="0.707483"/>
<rect x="866.667" y="443" width="86.6667" height="86" stroke="#E5E5E5" stroke-opacity="0.898039" stroke-width="0.707483"/>
<rect x="953.334" y="443" width="86.6667" height="86" stroke="#E5E5E5" stroke-opacity="0.898039" stroke-width="0.707483"/>
<rect x="1040" y="443" width="86.6667" height="86" stroke="#E5E5E5" stroke-opacity="0.898039" stroke-width="0.707483"/>
<rect x="1126.67" y="443" width="86.6667" height="86" stroke="#E5E5E5" stroke-opacity="0.898039" stroke-width="0.707483"/>
<rect x="1213.33" y="443" width="86.6667" height="86" stroke="#E5E5E5" stroke-opacity="0.898039" stroke-width="0.707483"/>
<rect x="86.6665" y="529" width="86.6667" height="87" stroke="#E5E5E5" stroke-opacity="0.898039" stroke-width="0.707483"/>
<rect x="173.333" y="529" width="86.6667" height="87" stroke="#E5E5E5" stroke-opacity="0.898039" stroke-width="0.707483"/>
<rect x="260" y="529" width="86.6667" height="87" stroke="#E5E5E5" stroke-opacity="0.898039" stroke-width="0.707483"/>
<rect x="346.667" y="529" width="86.6667" height="87" fill="#FAFAFA" fill-opacity="0.898039"/>
<rect x="433.333" y="529" width="86.6667" height="87" stroke="#E5E5E5" stroke-opacity="0.898039" stroke-width="0.707483"/>
<rect x="520" y="529" width="86.6667" height="87" stroke="#E5E5E5" stroke-opacity="0.898039" stroke-width="0.707483"/>
<rect x="606.667" y="529" width="86.6667" height="87" fill="#F2F2F2" stroke="#E5E5E5" stroke-opacity="0.898039" stroke-width="0.707483"/>
<rect x="693.333" y="529" width="86.6667" height="87" stroke="#E5E5E5" stroke-opacity="0.898039" stroke-width="0.707483"/>
<rect x="780" y="529" width="86.6667" height="87" stroke="#E5E5E5" stroke-opacity="0.898039" stroke-width="0.707483"/>
<rect x="866.667" y="529" width="86.6667" height="87" stroke="#E5E5E5" stroke-opacity="0.898039" stroke-width="0.707483"/>
<rect x="953.334" y="529" width="86.6667" height="87" stroke="#E5E5E5" stroke-opacity="0.898039" stroke-width="0.707483"/>
<rect x="1040" y="529" width="86.6667" height="87" stroke="#E5E5E5" stroke-opacity="0.898039" stroke-width="0.707483"/>
<rect x="1126.67" y="529" width="86.6667" height="87" fill="#FAFAFA" fill-opacity="0.898039"/>
<rect x="1213.33" y="529" width="86.6667" height="87" stroke="#E5E5E5" stroke-opacity="0.898039" stroke-width="0.707483"/>
</g>
</g>
</svg>
