<svg width="24" height="25" viewBox="0 0 24 25" fill="none" xmlns="http://www.w3.org/2000/svg">
<path d="M12.0001 9.24298C10.2798 9.24298 8.87589 10.6469 8.87589 12.3672C8.87589 14.0875 10.2798 15.4914 12.0001 15.4914C13.7204 15.4914 15.1243 14.0875 15.1243 12.3672C15.1243 10.6469 13.7204 9.24298 12.0001 9.24298ZM21.3704 12.3672C21.3704 11.0735 21.3821 9.79142 21.3095 8.50001C21.2368 7.00001 20.8946 5.66876 19.7978 4.57189C18.6985 3.47267 17.3696 3.13283 15.8696 3.06017C14.5759 2.98751 13.2939 2.99923 12.0025 2.99923C10.7087 2.99923 9.42667 2.98751 8.13527 3.06017C6.63527 3.13283 5.30402 3.47501 4.20714 4.57189C3.10792 5.67111 2.76808 7.00001 2.69542 8.50001C2.62277 9.79376 2.63449 11.0758 2.63449 12.3672C2.63449 13.6586 2.62277 14.943 2.69542 16.2344C2.76808 17.7344 3.11027 19.0656 4.20714 20.1625C5.30636 21.2617 6.63527 21.6016 8.13527 21.6742C9.42902 21.7469 10.711 21.7352 12.0025 21.7352C13.2962 21.7352 14.5782 21.7469 15.8696 21.6742C17.3696 21.6016 18.7009 21.2594 19.7978 20.1625C20.897 19.0633 21.2368 17.7344 21.3095 16.2344C21.3845 14.943 21.3704 13.661 21.3704 12.3672ZM12.0001 17.1742C9.33995 17.1742 7.19308 15.0274 7.19308 12.3672C7.19308 9.70704 9.33995 7.56017 12.0001 7.56017C14.6603 7.56017 16.8071 9.70704 16.8071 12.3672C16.8071 15.0274 14.6603 17.1742 12.0001 17.1742ZM17.004 8.48595C16.3829 8.48595 15.8814 7.98439 15.8814 7.36329C15.8814 6.7422 16.3829 6.24064 17.004 6.24064C17.6251 6.24064 18.1267 6.7422 18.1267 7.36329C18.1269 7.51078 18.0979 7.65685 18.0416 7.79314C17.9852 7.92943 17.9026 8.05326 17.7983 8.15755C17.694 8.26183 17.5701 8.34452 17.4339 8.40087C17.2976 8.45722 17.1515 8.48614 17.004 8.48595Z" fill="#1D1D1D"/>
</svg>
