<svg width="24" height="25" viewBox="0 0 24 25" fill="none" xmlns="http://www.w3.org/2000/svg">
<g clip-path="url(#clip0_175_8355)">
<path d="M6.20062 21.3672H1.84688V7.34689H6.20062V21.3672ZM4.02141 5.43439C2.62922 5.43439 1.5 4.28127 1.5 2.88908C1.5 2.22036 1.76565 1.57903 2.2385 1.10618C2.71136 0.633323 3.35269 0.367676 4.02141 0.367676C4.69012 0.367676 5.33145 0.633323 5.80431 1.10618C6.27716 1.57903 6.54281 2.22036 6.54281 2.88908C6.54281 4.28127 5.41313 5.43439 4.02141 5.43439ZM22.4953 21.3672H18.1509V14.5422C18.1509 12.9156 18.1181 10.8297 15.8873 10.8297C13.6237 10.8297 13.2769 12.5969 13.2769 14.425V21.3672H8.92781V7.34689H13.1034V9.25939H13.1644C13.7456 8.15783 15.1655 6.99533 17.2838 6.99533C21.69 6.99533 22.5 9.89689 22.5 13.6656V21.3672H22.4953Z" fill="#1D1D1D"/>
</g>
<defs>
<clipPath id="clip0_175_8355">
<rect width="24" height="24" fill="white" transform="translate(0 0.367188)"/>
</clipPath>
</defs>
</svg>
