<svg width="159" height="43" viewBox="0 0 159 43" fill="none" xmlns="http://www.w3.org/2000/svg">
<path d="M159 34.9269C159 39.3736 155.374 42.967 150.927 42.9265L9.44177 41.6388C4.49898 41.5938 0.779312 37.1217 1.6355 32.2534L6.14468 6.61429C6.81738 2.78931 10.1401 0 14.0238 0H151C155.418 0 159 3.58172 159 8V34.9269Z" fill="#D4D0FF"/>
<g filter="url(#filter0_d_300_10908)">
<path d="M9 11C9 7.68629 11.6863 5 15 5H149.407C152.944 5 155.713 8.04291 155.381 11.5636L153.399 32.5636C153.108 35.6453 150.521 38 147.426 38H15C11.6863 38 9 35.3137 9 32V11Z" fill="#281AC9"/>
<path d="M15 6H149.407C152.354 6 154.662 8.5358 154.385 11.4697L152.403 32.4697C152.161 35.0377 150.005 37 147.426 37H15C12.2386 37 10 34.7614 10 32V11C10 8.23858 12.2386 6 15 6Z" stroke="white" stroke-width="2"/>
</g>
<path d="M36.9885 26V15.8182H39.1412V24.2251H43.5062V26H36.9885ZM48.3423 26.1491C47.5701 26.1491 46.9022 25.9851 46.3388 25.657C45.7786 25.3255 45.3461 24.8648 45.0412 24.2749C44.7363 23.6816 44.5838 22.9938 44.5838 22.2116C44.5838 21.4228 44.7363 20.7334 45.0412 20.1435C45.3461 19.5502 45.7786 19.0895 46.3388 18.7614C46.9022 18.4299 47.5701 18.2642 48.3423 18.2642C49.1146 18.2642 49.7808 18.4299 50.3409 18.7614C50.9044 19.0895 51.3385 19.5502 51.6435 20.1435C51.9484 20.7334 52.1009 21.4228 52.1009 22.2116C52.1009 22.9938 51.9484 23.6816 51.6435 24.2749C51.3385 24.8648 50.9044 25.3255 50.3409 25.657C49.7808 25.9851 49.1146 26.1491 48.3423 26.1491ZM48.3523 24.5085C48.7036 24.5085 48.9969 24.4091 49.2322 24.2102C49.4676 24.008 49.6449 23.733 49.7642 23.3849C49.8868 23.0369 49.9482 22.6409 49.9482 22.1967C49.9482 21.7526 49.8868 21.3565 49.7642 21.0085C49.6449 20.6605 49.4676 20.3854 49.2322 20.1832C48.9969 19.9811 48.7036 19.88 48.3523 19.88C47.9976 19.88 47.6993 19.9811 47.4574 20.1832C47.2188 20.3854 47.0381 20.6605 46.9155 21.0085C46.7962 21.3565 46.7365 21.7526 46.7365 22.1967C46.7365 22.6409 46.7962 23.0369 46.9155 23.3849C47.0381 23.733 47.2188 24.008 47.4574 24.2102C47.6993 24.4091 47.9976 24.5085 48.3523 24.5085ZM56.9283 26.1491C56.1461 26.1491 55.4732 25.9834 54.9098 25.652C54.3497 25.3172 53.9188 24.8532 53.6172 24.2599C53.3189 23.6667 53.1697 22.9839 53.1697 22.2116C53.1697 21.4295 53.3205 20.7434 53.6222 20.1534C53.9271 19.5601 54.3596 19.0978 54.9197 18.7663C55.4799 18.4316 56.1461 18.2642 56.9183 18.2642C57.5845 18.2642 58.1679 18.3852 58.6683 18.6271C59.1688 18.8691 59.5649 19.2088 59.8565 19.6463C60.1482 20.0838 60.3089 20.5975 60.3388 21.1875H58.3402C58.2839 20.8063 58.1347 20.4998 57.8928 20.2678C57.6541 20.0324 57.3409 19.9148 56.9531 19.9148C56.625 19.9148 56.3383 20.0043 56.093 20.1832C55.8511 20.3589 55.6622 20.6158 55.5263 20.9538C55.3904 21.2919 55.3224 21.7012 55.3224 22.1818C55.3224 22.669 55.3887 23.0833 55.5213 23.4247C55.6572 23.7661 55.8478 24.0263 56.093 24.2053C56.3383 24.3842 56.625 24.4737 56.9531 24.4737C57.1951 24.4737 57.4122 24.424 57.6044 24.3246C57.8 24.2251 57.9607 24.081 58.0866 23.892C58.2159 23.6998 58.3004 23.4695 58.3402 23.201H60.3388C60.3056 23.7843 60.1465 24.2981 59.8615 24.7422C59.5798 25.183 59.1903 25.5277 58.6932 25.7763C58.196 26.0249 57.6077 26.1491 56.9283 26.1491ZM63.8723 26.1442C63.3851 26.1442 62.9509 26.0597 62.5698 25.8906C62.1886 25.7183 61.887 25.4647 61.665 25.13C61.4462 24.7919 61.3368 24.371 61.3368 23.8672C61.3368 23.4429 61.4147 23.0866 61.5705 22.7983C61.7263 22.5099 61.9384 22.2779 62.2069 22.1023C62.4753 21.9266 62.7802 21.794 63.1216 21.7045C63.4663 21.6151 63.8276 21.5521 64.2054 21.5156C64.6496 21.4692 65.0075 21.4261 65.2793 21.3864C65.5511 21.3433 65.7483 21.2803 65.8709 21.1974C65.9935 21.1146 66.0549 20.992 66.0549 20.8295V20.7997C66.0549 20.4848 65.9554 20.2412 65.7566 20.0689C65.561 19.8965 65.2826 19.8104 64.9213 19.8104C64.5402 19.8104 64.2369 19.8949 64.0115 20.0639C63.7862 20.2296 63.637 20.4384 63.5641 20.6903L61.6053 20.5312C61.7047 20.0672 61.9003 19.6662 62.1919 19.3281C62.4836 18.9867 62.8598 18.7249 63.3205 18.5426C63.7845 18.357 64.3214 18.2642 64.9313 18.2642C65.3555 18.2642 65.7615 18.3139 66.1493 18.4134C66.5404 18.5128 66.8868 18.6669 67.1884 18.8757C67.4933 19.0845 67.7336 19.353 67.9093 19.6811C68.0849 20.0059 68.1728 20.3954 68.1728 20.8494V26H66.1642V24.9411H66.1046C65.9819 25.1797 65.8179 25.3902 65.6124 25.5724C65.4069 25.7514 65.16 25.8923 64.8716 25.995C64.5833 26.0945 64.2502 26.1442 63.8723 26.1442ZM64.4789 24.6825C64.7904 24.6825 65.0655 24.6212 65.3042 24.4986C65.5428 24.3726 65.7301 24.2036 65.8659 23.9915C66.0018 23.7794 66.0698 23.5391 66.0698 23.2706V22.4602C66.0035 22.5033 65.9123 22.5431 65.7963 22.5795C65.6837 22.6127 65.556 22.6442 65.4135 22.674C65.271 22.7005 65.1285 22.7254 64.986 22.7486C64.8435 22.7685 64.7142 22.7867 64.5982 22.8033C64.3496 22.8397 64.1325 22.8977 63.9469 22.9773C63.7613 23.0568 63.6171 23.1645 63.5144 23.3004C63.4116 23.433 63.3603 23.5987 63.3603 23.7976C63.3603 24.0859 63.4647 24.3063 63.6735 24.4588C63.8856 24.608 64.1541 24.6825 64.4789 24.6825ZM71.9338 15.8182V26H69.8159V15.8182H71.9338ZM79.063 15.8182V26H76.9103V15.8182H79.063ZM80.7944 26V18.3636H82.8129V19.7109H82.9023C83.0614 19.2635 83.3266 18.9105 83.6978 18.652C84.069 18.3935 84.5131 18.2642 85.0302 18.2642C85.5539 18.2642 85.9996 18.3951 86.3675 18.657C86.7354 18.9155 86.9807 19.2668 87.1033 19.7109H87.1829C87.3387 19.2734 87.6204 18.9238 88.0281 18.6619C88.439 18.3968 88.9246 18.2642 89.4847 18.2642C90.1973 18.2642 90.7757 18.4912 91.2198 18.9453C91.6673 19.3961 91.891 20.0357 91.891 20.8643V26H89.7781V21.282C89.7781 20.8577 89.6654 20.5395 89.44 20.3274C89.2146 20.1153 88.9329 20.0092 88.5948 20.0092C88.2103 20.0092 87.9104 20.1319 87.695 20.3771C87.4795 20.6191 87.3718 20.9389 87.3718 21.3366V26H85.3185V21.2372C85.3185 20.8627 85.2108 20.5644 84.9954 20.3423C84.7833 20.1203 84.5032 20.0092 84.1552 20.0092C83.9199 20.0092 83.7077 20.0689 83.5188 20.1882C83.3332 20.3042 83.1857 20.4683 83.0763 20.6804C82.967 20.8892 82.9123 21.1345 82.9123 21.4162V26H80.7944ZM93.5639 28.8636V18.3636H95.652V19.6463H95.7464C95.8393 19.4408 95.9735 19.232 96.1491 19.0199C96.3281 18.8045 96.5601 18.6255 96.8452 18.483C97.1335 18.3371 97.4915 18.2642 97.919 18.2642C98.4759 18.2642 98.9896 18.41 99.4602 18.7017C99.9309 18.9901 100.307 19.4259 100.589 20.0092C100.871 20.5893 101.011 21.3168 101.011 22.1918C101.011 23.0436 100.874 23.7628 100.599 24.3494C100.327 24.9328 99.9557 25.3752 99.4851 25.6768C99.0178 25.9751 98.4941 26.1243 97.9141 26.1243C97.5031 26.1243 97.1534 26.0563 96.8651 25.9205C96.58 25.7846 96.3464 25.6139 96.1641 25.4084C95.9818 25.1996 95.8426 24.9891 95.7464 24.777H95.6818V28.8636H93.5639ZM95.6371 22.1818C95.6371 22.6359 95.7 23.032 95.826 23.37C95.9519 23.7081 96.1342 23.9716 96.3729 24.1605C96.6115 24.3461 96.9015 24.4389 97.2429 24.4389C97.5876 24.4389 97.8793 24.3445 98.1179 24.1555C98.3565 23.9633 98.5372 23.6982 98.6598 23.3601C98.7857 23.0187 98.8487 22.6259 98.8487 22.1818C98.8487 21.741 98.7874 21.3532 98.6648 21.0185C98.5421 20.6837 98.3615 20.4219 98.1229 20.233C97.8842 20.044 97.5909 19.9496 97.2429 19.9496C96.8982 19.9496 96.6065 20.0407 96.3679 20.223C96.1326 20.4053 95.9519 20.6638 95.826 20.9986C95.7 21.3333 95.6371 21.7277 95.6371 22.1818ZM104.601 26.1442C104.114 26.1442 103.679 26.0597 103.298 25.8906C102.917 25.7183 102.616 25.4647 102.393 25.13C102.175 24.7919 102.065 24.371 102.065 23.8672C102.065 23.4429 102.143 23.0866 102.299 22.7983C102.455 22.5099 102.667 22.2779 102.935 22.1023C103.204 21.9266 103.509 21.794 103.85 21.7045C104.195 21.6151 104.556 21.5521 104.934 21.5156C105.378 21.4692 105.736 21.4261 106.008 21.3864C106.28 21.3433 106.477 21.2803 106.599 21.1974C106.722 21.1146 106.783 20.992 106.783 20.8295V20.7997C106.783 20.4848 106.684 20.2412 106.485 20.0689C106.29 19.8965 106.011 19.8104 105.65 19.8104C105.269 19.8104 104.965 19.8949 104.74 20.0639C104.515 20.2296 104.366 20.4384 104.293 20.6903L102.334 20.5312C102.433 20.0672 102.629 19.6662 102.92 19.3281C103.212 18.9867 103.588 18.7249 104.049 18.5426C104.513 18.357 105.05 18.2642 105.66 18.2642C106.084 18.2642 106.49 18.3139 106.878 18.4134C107.269 18.5128 107.615 18.6669 107.917 18.8757C108.222 19.0845 108.462 19.353 108.638 19.6811C108.813 20.0059 108.901 20.3954 108.901 20.8494V26H106.893V24.9411H106.833C106.71 25.1797 106.546 25.3902 106.341 25.5724C106.135 25.7514 105.888 25.8923 105.6 25.995C105.312 26.0945 104.979 26.1442 104.601 26.1442ZM105.207 24.6825C105.519 24.6825 105.794 24.6212 106.033 24.4986C106.271 24.3726 106.459 24.2036 106.594 23.9915C106.73 23.7794 106.798 23.5391 106.798 23.2706V22.4602C106.732 22.5033 106.641 22.5431 106.525 22.5795C106.412 22.6127 106.285 22.6442 106.142 22.674C106 22.7005 105.857 22.7254 105.714 22.7486C105.572 22.7685 105.443 22.7867 105.327 22.8033C105.078 22.8397 104.861 22.8977 104.675 22.9773C104.49 23.0568 104.346 23.1645 104.243 23.3004C104.14 23.433 104.089 23.5987 104.089 23.7976C104.089 24.0859 104.193 24.3063 104.402 24.4588C104.614 24.608 104.883 24.6825 105.207 24.6825ZM113.995 26.1491C113.212 26.1491 112.54 25.9834 111.976 25.652C111.416 25.3172 110.985 24.8532 110.684 24.2599C110.385 23.6667 110.236 22.9839 110.236 22.2116C110.236 21.4295 110.387 20.7434 110.689 20.1534C110.993 19.5601 111.426 19.0978 111.986 18.7663C112.546 18.4316 113.212 18.2642 113.985 18.2642C114.651 18.2642 115.234 18.3852 115.735 18.6271C116.235 18.8691 116.631 19.2088 116.923 19.6463C117.215 20.0838 117.375 20.5975 117.405 21.1875H115.407C115.35 20.8063 115.201 20.4998 114.959 20.2678C114.721 20.0324 114.407 19.9148 114.02 19.9148C113.691 19.9148 113.405 20.0043 113.159 20.1832C112.917 20.3589 112.729 20.6158 112.593 20.9538C112.457 21.2919 112.389 21.7012 112.389 22.1818C112.389 22.669 112.455 23.0833 112.588 23.4247C112.724 23.7661 112.914 24.0263 113.159 24.2053C113.405 24.3842 113.691 24.4737 114.02 24.4737C114.261 24.4737 114.479 24.424 114.671 24.3246C114.866 24.2251 115.027 24.081 115.153 23.892C115.282 23.6998 115.367 23.4695 115.407 23.201H117.405C117.372 23.7843 117.213 24.2981 116.928 24.7422C116.646 25.183 116.257 25.5277 115.76 25.7763C115.262 26.0249 114.674 26.1491 113.995 26.1491ZM122.823 18.3636V19.9545H118.224V18.3636H122.823ZM119.268 16.5341H121.386V23.6534C121.386 23.849 121.416 24.0014 121.476 24.1108C121.535 24.2169 121.618 24.2914 121.724 24.3345C121.834 24.3776 121.96 24.3991 122.102 24.3991C122.202 24.3991 122.301 24.3909 122.4 24.3743C122.5 24.3544 122.576 24.3395 122.629 24.3295L122.962 25.9055C122.856 25.9387 122.707 25.9768 122.515 26.0199C122.323 26.0663 122.089 26.0945 121.814 26.1044C121.303 26.1243 120.856 26.0563 120.471 25.9006C120.09 25.7448 119.794 25.5028 119.581 25.1747C119.369 24.8466 119.265 24.4323 119.268 23.9318V16.5341ZM126.733 15.8182L126.539 22.9474H124.72L124.521 15.8182H126.733ZM125.629 26.1293C125.301 26.1293 125.02 26.0133 124.784 25.7812C124.549 25.5459 124.433 25.2642 124.436 24.9361C124.433 24.6113 124.549 24.3329 124.784 24.1009C125.02 23.8688 125.301 23.7528 125.629 23.7528C125.944 23.7528 126.221 23.8688 126.46 24.1009C126.698 24.3329 126.819 24.6113 126.823 24.9361C126.819 25.1548 126.761 25.3554 126.649 25.5376C126.539 25.7166 126.395 25.8608 126.216 25.9702C126.037 26.0762 125.842 26.1293 125.629 26.1293Z" fill="white"/>
<defs>
<filter id="filter0_d_300_10908" x="7.9" y="3.9" width="148.608" height="35.2" filterUnits="userSpaceOnUse" color-interpolation-filters="sRGB">
<feFlood flood-opacity="0" result="BackgroundImageFix"/>
<feColorMatrix in="SourceAlpha" type="matrix" values="0 0 0 0 0 0 0 0 0 0 0 0 0 0 0 0 0 0 127 0" result="hardAlpha"/>
<feOffset/>
<feGaussianBlur stdDeviation="0.55"/>
<feComposite in2="hardAlpha" operator="out"/>
<feColorMatrix type="matrix" values="0 0 0 0 0 0 0 0 0 0 0 0 0 0 0 0 0 0 1 0"/>
<feBlend mode="normal" in2="BackgroundImageFix" result="effect1_dropShadow_300_10908"/>
<feBlend mode="normal" in="SourceGraphic" in2="effect1_dropShadow_300_10908" result="shape"/>
</filter>
</defs>
</svg>
