<svg width="24" height="25" viewBox="0 0 24 25" fill="none" xmlns="http://www.w3.org/2000/svg">
<path d="M3.35195 7.0375C3.38008 6.76094 3.27227 6.48437 3.06602 6.29687L0.951953 3.74687V3.36719H7.52383L12.6051 14.5094L17.0723 3.36719H23.3395V3.74687L21.5301 5.48125C21.3754 5.59844 21.2957 5.79531 21.3285 5.9875V18.7375C21.2957 18.9297 21.3754 19.1266 21.5301 19.2437L23.2973 20.9781V21.3578H14.4051V20.9781L16.2379 19.2016C16.416 19.0234 16.416 18.9672 16.416 18.6953V8.39219L11.3207 21.325H10.6316L4.70664 8.39219V17.0594C4.65508 17.425 4.77695 17.7906 5.03477 18.0531L7.41602 20.9406V21.3203H0.666016V20.9453L3.04727 18.0531C3.30039 17.7906 3.41758 17.4203 3.35195 17.0594V7.0375Z" fill="#1D1D1D"/>
</svg>
