<svg width="24" height="24" viewBox="0 0 24 24" fill="none" xmlns="http://www.w3.org/2000/svg">
<path d="M3.63732 3.43396L12.3773 12.005L3.70232 20.655C3.5604 20.4701 3.45022 20.263 3.37632 20.042C3.3381 19.7917 3.3381 19.5372 3.37632 19.287V4.56696C3.35032 4.17196 3.44132 3.77696 3.63632 3.43396M16.1423 8.26696L13.2893 11.093L4.65332 2.59996C4.93332 2.50296 5.23332 2.47596 5.52632 2.52196C5.98632 2.64796 6.42532 2.84196 6.82832 3.09496L14.6443 7.41996C15.1523 7.69296 15.6473 7.97996 16.1423 8.26696ZM13.2903 12.93L16.1293 15.718L14.0713 16.864L7.79232 20.354C7.27232 20.641 6.75032 20.915 6.24232 21.228C6.02495 21.3633 5.78121 21.4507 5.52737 21.4843C5.27353 21.5179 5.01543 21.497 4.77032 21.423L13.2903 12.93ZM20.6503 12.005C20.6576 12.3546 20.5693 12.6997 20.3948 13.0028C20.2203 13.3059 19.9663 13.5556 19.6603 13.725L17.3143 15.027L14.2273 12.005L17.3273 8.93096C18.1223 9.37396 18.9043 9.81696 19.6853 10.234C19.9968 10.408 20.2526 10.6668 20.4232 10.9802C20.5938 11.2936 20.6732 11.6489 20.6503 12.005Z" fill="white"/>
</svg>
