<svg width="200" height="179" viewBox="0 0 200 179" fill="none" xmlns="http://www.w3.org/2000/svg">
<g clip-path="url(#clip0_204_1226)">
<rect width="199" height="178.5" transform="translate(0.5 0.25)" fill="white"/>
<mask id="mask0_204_1226" style="mask-type:luminance" maskUnits="userSpaceOnUse" x="0" y="0" width="200" height="179">
<path d="M199.5 0.25H0.5V178.75H199.5V0.25Z" fill="white"/>
</mask>
<g mask="url(#mask0_204_1226)">
<mask id="mask1_204_1226" style="mask-type:luminance" maskUnits="userSpaceOnUse" x="-54" y="-27" width="866" height="960">
<path d="M-53.5 -26.25H811.25V933H-53.5V-26.25Z" fill="white"/>
</mask>
<g mask="url(#mask1_204_1226)">
<g opacity="0.5">
<path d="M28.3594 89.0364L121.899 35.292L28.3594 89.0364Z" fill="white"/>
<path d="M28.3594 89.0364L121.899 35.292" stroke="#8FA2FF" stroke-opacity="0.5" stroke-width="23.0034" stroke-linecap="round"/>
</g>
<g opacity="0.5">
<path d="M50.6094 124.286L144.149 70.542L50.6094 124.286Z" fill="white"/>
<path d="M50.6094 124.286L144.149 70.542" stroke="#8FA2FF" stroke-opacity="0.5" stroke-width="23.0034" stroke-linecap="round"/>
</g>
<g opacity="0.5">
<path d="M168.109 57.0364L175.4 52.7926L168.109 57.0364Z" fill="white"/>
<path d="M168.109 57.0364L175.4 52.7926" stroke="#8FA2FF" stroke-opacity="0.5" stroke-width="23.0034" stroke-linecap="round"/>
</g>
<g opacity="0.5">
<path d="M83.6094 153.286L154.649 111.792L83.6094 153.286Z" fill="white"/>
<path d="M83.6094 153.286L154.649 111.792" stroke="#8FA2FF" stroke-opacity="0.5" stroke-width="23.0034" stroke-linecap="round"/>
</g>
<path d="M172.032 115.826C173.17 115.946 173.997 116.966 173.877 118.104C173.758 119.242 172.738 120.068 171.6 119.949C170.462 119.83 169.635 118.809 169.755 117.672C169.874 116.534 170.894 115.707 172.032 115.826Z" stroke="#281AC8" stroke-width="1.07089"/>
<path d="M51.1184 158.058C52.9892 158.254 54.349 159.932 54.1529 161.803C53.9568 163.674 52.2786 165.034 50.4078 164.838C48.5369 164.642 47.1771 162.963 47.3732 161.092C47.5693 159.222 49.2475 157.862 51.1184 158.058Z" stroke="#281AC8" stroke-width="1.761"/>
<path d="M98.8703 18.3383C100.741 18.5344 102.101 20.2126 101.905 22.0835C101.709 23.9543 100.031 25.3141 98.1597 25.118C96.2889 24.9219 94.9291 23.2437 95.1252 21.3729C95.3213 19.502 96.9995 18.1422 98.8703 18.3383Z" stroke="#281AC8" stroke-width="1.761"/>
<path d="M19.9263 62.7251C20.7857 62.7251 21.4834 63.4228 21.4834 64.2822C21.4834 65.1416 20.7857 65.8394 19.9263 65.8394C19.0669 65.8394 18.3691 65.1416 18.3691 64.2822C18.3691 63.4228 19.0669 62.7251 19.9263 62.7251Z" stroke="#281AC8" stroke-width="1.28722"/>
<path d="M140.868 164.269C141.727 164.269 142.425 164.966 142.425 165.826C142.425 166.685 141.727 167.383 140.868 167.383C140.008 167.383 139.311 166.685 139.311 165.826C139.311 164.966 140.008 164.269 140.868 164.269Z" stroke="#281AC8" stroke-width="1.28722"/>
<path d="M158.591 17.842L160.453 11.876" stroke="#281AC8" stroke-width="0.75"/>
<path d="M156.637 13.9717L162.603 15.834" stroke="#281AC8" stroke-width="0.75"/>
<path d="M26.1973 119.874L27.8462 113.845" stroke="#281AC8" stroke-width="0.75"/>
<path d="M24.1074 116.075L30.136 117.724" stroke="#281AC8" stroke-width="0.75"/>
<path d="M156.109 146.914L157.431 140.806" stroke="#281AC8" stroke-width="0.75"/>
<path d="M153.817 143.234L159.926 144.556" stroke="#281AC8" stroke-width="0.75"/>
</g>
<path d="M100.027 44.5702C124.828 44.5702 144.965 64.7067 144.965 89.5078C144.965 114.309 124.828 134.445 100.027 134.445C75.2264 134.445 55.0898 114.309 55.0898 89.5078C55.0898 64.7067 75.2264 44.5702 100.027 44.5702Z" fill="#4E6AFF"/>
<path d="M99.9999 48.8203C122.455 48.8203 140.687 67.0523 140.687 89.5077C140.687 111.963 122.455 130.195 99.9999 130.195C77.5445 130.195 59.3125 111.963 59.3125 89.5077C59.3125 67.0523 77.5445 48.8203 99.9999 48.8203Z" fill="#281AC8"/>
<path d="M81.625 91L92.625 101.75L118.375 76" stroke="white" stroke-width="4.5"/>
</g>
</g>
<defs>
<clipPath id="clip0_204_1226">
<rect width="199" height="178.5" fill="white" transform="translate(0.5 0.25)"/>
</clipPath>
</defs>
</svg>
