<svg width="23" height="18" viewBox="0 0 23 18" fill="none" xmlns="http://www.w3.org/2000/svg">
<path d="M2.68594 3.67031C2.71406 3.39375 2.60625 3.11719 2.4 2.92969L0.285937 0.379687V0H6.85781L11.9391 11.1422L16.4062 0H22.6734V0.379687L20.8641 2.11406C20.7094 2.23125 20.6297 2.42812 20.6625 2.62031V15.3703C20.6297 15.5625 20.7094 15.7594 20.8641 15.8766L22.6312 17.6109V17.9906H13.7391V17.6109L15.5719 15.8344C15.75 15.6562 15.75 15.6 15.75 15.3281V5.025L10.6547 17.9578H9.96563L4.04063 5.025V13.6922C3.98906 14.0578 4.11094 14.4234 4.36875 14.6859L6.75 17.5734V17.9531H0V17.5781L2.38125 14.6859C2.63437 14.4234 2.75156 14.0531 2.68594 13.6922V3.67031Z" fill="white"/>
</svg>
